# xmcd
#
# Track frame offsets:
#	150
#	14239
#	29055
#	48357
#	63902
#	80466
#	96213
#	109732
#	125667
#	143251
#	157573
#	171490
#	187717
#	201822
#	217502
#	234967
#	249303
#	266437
#	282003
#	297787
#
# Disc length: 4154 seconds
#
# Revision: 1
# Processed by: cddbd v1.5.2PL0 Copyright (c) Steve Scherf et al.
# Submitted via: audiograbber 1.83.01
#
DISCID=08103814
DTITLE=Various Artist - Country To Country Vol 4 CD2
DYEAR=2019
DGENRE=Country
TTITLE0=Lady Antebellum - You Look Good
TTITLE1=Kelsea Ballerina - Miss Me More
TTITLE2=Darius Rucker - Straight To Hell
TTITLE3=Fairground Saints - Somewhere Down the Line
TTITLE4=Kacey Musgraves - Space Cowboy
TTITLE5=Runaway June - Buy My Own Drinks
TTITLE6=Lainey Wilson - Waste Of Good Whiskey
TTITLE7=Maren Morris - Rich
TTITLE8=Lanco - Born to Love You
TTITLE9=Ryan Hurd - Love in a Bar
TTITLE10=Ward Thomas - I Believe In You
TTITLE11=Russell Dickerson - Blue Tacoma
TTITLE12=Luke Combs - She Got The Best of Me
TTITLE13=Ashley Campbell - Better Boyfriend
TTITLE14=Kip Moore - Last Shot
TTITLE15=Little Big Town - Summer Fever
TTITLE16=Mo Pitney - I met Merle Haggard Today
TTITLE17=Lindsay Ell - Criminal
TTITLE18=Travis Denning - Red, White And Blue
TTITLE19=RaeLynn - Tailgate
EXTD=
EXTT0=
EXTT1=
EXTT2=
EXTT3=
EXTT4=
EXTT5=
EXTT6=
EXTT7=
EXTT8=
EXTT9=
EXTT10=
EXTT11=
EXTT12=
EXTT13=
EXTT14=
EXTT15=
EXTT16=
EXTT17=
EXTT18=
EXTT19=
PLAYORDER=
